<svg xmlns="http://www.w3.org/2000/svg" xmlns:xlink="http://www.w3.org/1999/xlink" width="73.151" height="130" viewBox="0 0 73.151 130"><defs><clipPath id="clip-path"><rect id="Rectangle_9" data-name="Rectangle 9" width="73.151" height="130" fill="none"></rect></clipPath></defs><g id="Group_18" data-name="Group 18" clip-path="url(#clip-path)"><path id="Path_2" data-name="Path 2" d="M6.3,65.506c9.608-4.983,19.941-14.537,27.444-27.538C41.462,24.608,44.4,12.054,43.986.159L44.754,0c2.714,15.466,1.44,27.588-6.641,40.8C29.574,54.757,18.893,62.231,6.48,66.086Z" transform="translate(-1.441)" fill="#af0b2b"></path><path id="Path_3" data-name="Path 3" d="M5.712,35.88c10.585-.356,24.06,2.843,36.873,10.351,13.172,7.714,21.978,17.2,27.571,27.56l.662-.395C65.381,58.87,57.223,49.43,44.852,41.712c-13.735-8.571-26.894-9.08-39.281-6.41Z" transform="translate(-1.274 -7.747)" fill="#8c97a8"></path><path id="Path_4" data-name="Path 4" d="M10.271,106.373l-.784-2.35H4.771l-.8,2.35h-2.7L6.1,93.1H8.127l4.847,13.273Zm-3.094-9.36L5.5,101.842H8.8Z" transform="translate(-0.29 -21.292)" fill="#af0b2b"></path><path id="Path_5" data-name="Path 5" d="M30.662,106.373V93.1h2.59v10.961h6.022v2.312Z" transform="translate(-7.012 -21.292)" fill="#af0b2b"></path><path id="Path_6" data-name="Path 6" d="M59.24,95.411v3.262h5.238v2.312H59.24v5.388H56.649V93.1h8.743v2.311Z" transform="translate(-12.956 -21.292)" fill="#af0b2b"></path><path id="Path_7" data-name="Path 7" d="M88.666,106.373l-.782-2.35H83.167l-.8,2.35h-2.7L84.491,93.1h2.032l4.847,13.273Zm-3.094-9.36-1.679,4.828h3.3Z" transform="translate(-18.219 -21.292)" fill="#af0b2b"></path><path id="Path_8" data-name="Path 8" d="M6.715,136.689a5.741,5.741,0,0,1-4.529-1.752l.949-.951a4.545,4.545,0,0,0,3.617,1.435c1.957,0,3.15-.895,3.15-2.461A2.081,2.081,0,0,0,9.25,131.3a2.853,2.853,0,0,0-1.734-.653l-1.547-.224a4.648,4.648,0,0,1-2.423-1.007,3.157,3.157,0,0,1-1.026-2.5c0-2.255,1.622-3.728,4.25-3.728a5.4,5.4,0,0,1,3.952,1.453l-.912.915a4.116,4.116,0,0,0-3.1-1.157c-1.789,0-2.814.988-2.814,2.48a1.956,1.956,0,0,0,.6,1.548,3.567,3.567,0,0,0,1.733.688l1.548.244a4.007,4.007,0,0,1,2.4.949,3.348,3.348,0,0,1,1.118,2.61c0,2.332-1.807,3.765-4.586,3.765" transform="translate(-0.5 -28.175)" fill="#8c97a8"></path><path id="Path_9" data-name="Path 9" d="M37.225,135.385a4.85,4.85,0,0,1-6.619,0c-1.25-1.249-1.323-2.4-1.323-5.444s.073-4.194,1.323-5.443a4.848,4.848,0,0,1,6.619,0c1.25,1.249,1.342,2.406,1.342,5.443s-.093,4.2-1.342,5.444m-1.007-9.992a3.285,3.285,0,0,0-4.585,0c-.838.857-.932,1.827-.932,4.548s.094,3.692.932,4.549a3.285,3.285,0,0,0,4.585,0c.84-.857.933-1.827.933-4.549s-.093-3.691-.933-4.548" transform="translate(-6.697 -28.174)" fill="#8c97a8"></path><path id="Path_10" data-name="Path 10" d="M59.152,124.606v4.885h5.816v1.267H59.152v5.854H57.735V123.338h8.241v1.267Z" transform="translate(-13.204 -28.208)" fill="#8c97a8"></path><path id="Path_11" data-name="Path 11" d="M87.337,124.606v12.006H85.92V124.606h-3.84v-1.267h9.1v1.267Z" transform="translate(-18.772 -28.208)" fill="#8c97a8"></path><path id="Path_12" data-name="Path 12" d="M11.694,164.611H10.4L7.51,153.987,4.623,164.611h-1.3L0,151.338H1.48l2.538,10.7,2.869-10.7H8.13L11,162.04l2.538-10.7H15.02Z" transform="translate(0 -34.611)" fill="#8c97a8"></path><path id="Path_13" data-name="Path 13" d="M39.094,164.611l-1.042-3H32.369l-1.039,3H29.848l4.788-13.273H35.8l4.77,13.273Zm-3.855-11.24-2.45,7.01H37.65Z" transform="translate(-6.826 -34.611)" fill="#8c97a8"></path><path id="Path_14" data-name="Path 14" d="M63.9,164.61l-2.961-5.89H57.818v5.89h-1.39V151.337h4.99a3.551,3.551,0,0,1,3.855,3.693,3.427,3.427,0,0,1-2.834,3.56l3.09,6.02Zm-2.613-12H57.818v4.866h3.471a2.438,2.438,0,1,0,0-4.866" transform="translate(-12.905 -34.611)" fill="#8c97a8"></path><path id="Path_15" data-name="Path 15" d="M81.921,164.611V151.338H90v1.269H83.312v4.679h5.7v1.268h-5.7v4.791H90v1.267Z" transform="translate(-18.735 -34.611)" fill="#8c97a8"></path></g></svg>