<svg xmlns="http://www.w3.org/2000/svg" xmlns:xlink="http://www.w3.org/1999/xlink" width="66px" height="67px" viewBox="0 0 66 67"><title>Group 18</title><g id="Page-1" stroke="none" stroke-width="1" fill="none" fill-rule="evenodd"><g id="Group-18" transform="translate(0.297000, 0.000000)" fill-rule="nonzero"><g id="Group_197"><path d="M0.562,65.506 C10.17,60.523 20.503,50.969 28.006,37.968 C35.724,24.608 38.662,12.054 38.248,0.159 L39.016,0 C41.73,15.466 40.456,27.588 32.375,40.8 C23.836,54.757 13.155,62.231 0.742,66.086 L0.562,65.506 Z" id="Path_2" fill="#AF0B2B"></path><path d="M0.141,28.133 C10.726,27.777 24.201,30.976 37.014,38.484 C50.186,46.198 58.992,55.684 64.585,66.044 L65.247,65.649 C59.81,51.123 51.652,41.683 39.281,33.965 C25.546,25.394 12.387,24.885 8.8817842e-16,27.555 L0.141,28.133 Z" id="Path_3" fill="#8C97A8"></path></g></g></g></svg>