<svg xmlns="http://www.w3.org/2000/svg" xmlns:xlink="http://www.w3.org/1999/xlink" width="464.056" height="190.649" viewBox="0 0 464.056 190.649">
  <defs>
    <clipPath id="clip-path">
      <rect id="Rectangle_73" data-name="Rectangle 73" width="93.582" height="149.979" fill="none"/>
    </clipPath>
  </defs>
  <g id="Group_196" data-name="Group 196" transform="translate(0.5 -44.771)">
    <path id="Intersection_1" data-name="Intersection 1" d="M-97.7,487.474,66.209,476.013,78.555,652.559-97.7,664.885Z" transform="translate(97.702 -430)" fill="#722a2d" stroke="rgba(0,0,0,0)" stroke-miterlimit="10" stroke-width="1"/>
    <g id="Group_85" data-name="Group 85" transform="translate(52.808 62.579)" clip-path="url(#clip-path)">
      <path id="Path_54" data-name="Path 54" d="M71.985,69.019C60.262,80.742,42.249,81.743,31.758,71.25s-9.5-28.508,2.225-40.234S63.726,18.3,74.22,28.791s9.492,28.5-2.236,40.228" transform="translate(-5.767 -5.068)" fill="#fff"/>
      <path id="Path_55" data-name="Path 55" d="M59.316,68.568c-4.322,0-7.391-1.01-10.178-3.8L52.006,61.9A9.666,9.666,0,0,0,59.4,64.69c3.8,0,5.937-1.615,5.937-4.443A3.678,3.678,0,0,0,64.2,57.259a5.67,5.67,0,0,0-3.15-1.212l-3.393-.485a9.709,9.709,0,0,1-5.412-2.3,7.151,7.151,0,0,1-2.141-5.534c0-5.008,3.635-8.4,9.613-8.4A11.911,11.911,0,0,1,68.646,42.6L65.9,45.344a8.576,8.576,0,0,0-6.342-2.222c-3.393,0-5.21,1.859-5.21,4.484a3.334,3.334,0,0,0,1.05,2.666,5.586,5.586,0,0,0,3.15,1.292l3.434.525c2.625.4,4.078,1.009,5.332,2.141a7.661,7.661,0,0,1,2.343,5.9c0,5.291-4.282,8.442-10.34,8.442m2.141-31.787H57.984l-5.21-6.5h3.432L59.721,34.2l3.513-3.918h3.433Z" transform="translate(-11.567 -7.127)" fill="#722a2d"/>
      <path id="Path_56" data-name="Path 56" d="M20.709,154.544l-.844-2.527h-5.07l-.862,2.527H11.027l5.192-14.269H18.4l5.21,14.269Zm-3.328-10.062-1.8,5.191h3.546Z" transform="translate(-2.596 -33.021)" fill="#c3c9d4"/>
      <path id="Path_57" data-name="Path 57" d="M42.9,154.544V140.275h2.785v11.783h6.47v2.486Z" transform="translate(-10.099 -33.021)" fill="#c3c9d4"/>
      <path id="Path_58" data-name="Path 58" d="M73.861,142.762v3.506h5.631v2.485H73.861v5.791H71.075V140.275h9.4v2.486Z" transform="translate(-16.731 -33.021)" fill="#c3c9d4"/>
      <path id="Path_59" data-name="Path 59" d="M105.71,154.544l-.843-2.527H99.8l-.86,2.527H96.029l5.192-14.269h2.184l5.208,14.269Zm-3.328-10.062-1.8,5.191h3.546Z" transform="translate(-22.605 -33.021)" fill="#c3c9d4"/>
      <path id="Path_60" data-name="Path 60" d="M15.964,190.281a6.662,6.662,0,0,1-5.185-1.877l1.795-1.8a4.616,4.616,0,0,0,3.409,1.2c1.658,0,2.535-.639,2.535-1.777a1.594,1.594,0,0,0-.437-1.177,2.053,2.053,0,0,0-1.276-.478l-1.7-.261a4.7,4.7,0,0,1-2.751-1.175,3.719,3.719,0,0,1-1.02-2.793c0-2.535,1.879-4.309,4.951-4.309a6.09,6.09,0,0,1,4.589,1.655l-1.759,1.735a3.925,3.925,0,0,0-2.912-.976c-1.473,0-2.172.817-2.172,1.795a1.324,1.324,0,0,0,.4,1.018,2.282,2.282,0,0,0,1.294.538l1.7.262a4.518,4.518,0,0,1,2.715,1.116,3.872,3.872,0,0,1,1.1,2.991c0,2.754-2.275,4.312-5.269,4.312m1.337-15.7H15.224l-2.631-3.372h2.015l1.654,1.8,1.658-1.8h2.015Z" transform="translate(-2.537 -40.302)" fill="#fff"/>
      <path id="Path_61" data-name="Path 61" d="M41.6,191.624l-3.651-6.466-1.837,2.2v4.271H33.337V177.418h2.773V183.6l5.007-6.183h3.37l-4.707,5.645,5.048,8.561Z" transform="translate(-7.848 -41.764)" fill="#fff"/>
      <path id="Path_62" data-name="Path 62" d="M64.052,190.209a5.065,5.065,0,0,1-3.79,1.5,5.118,5.118,0,0,1-3.812-1.5c-1.415-1.418-1.434-3.012-1.434-5.725s.018-4.31,1.434-5.725a5.1,5.1,0,0,1,3.812-1.5,5.05,5.05,0,0,1,3.79,1.5c1.418,1.415,1.456,3.009,1.456,5.725s-.037,4.307-1.456,5.725m-2.013-9.717a2.317,2.317,0,0,0-1.777-.757,2.392,2.392,0,0,0-1.8.757c-.52.6-.68,1.277-.68,3.992s.16,3.37.68,3.972a2.4,2.4,0,0,0,1.8.777,2.32,2.32,0,0,0,1.777-.777c.515-.6.7-1.259.7-3.972s-.184-3.39-.7-3.992" transform="translate(-12.951 -41.727)" fill="#fff"/>
      <path id="Path_63" data-name="Path 63" d="M77.918,191.624V177.418h2.773V189.15h6.444v2.474Z" transform="translate(-18.342 -41.764)" fill="#fff"/>
      <path id="Path_64" data-name="Path 64" d="M105.991,191.624l-.836-2.516h-5.047l-.859,2.516H96.356l5.166-14.206H103.7l5.189,14.206Zm-3.311-10.016-1.8,5.167h3.532Z" transform="translate(-22.682 -41.764)" fill="#fff"/>
      <path id="Path_65" data-name="Path 65" d="M.491,50.335c4.361-10.958,10.864-22.009,19.7-30.742C29.166,10.708,39.706,4.978,50.956.714L50.811.236a48.732,48.732,0,0,0-50.8,49.99Z" transform="translate(0 -0.048)" fill="#c3c9d4"/>
      <path id="Path_66" data-name="Path 66" d="M56.058,106.259c10.979-4.231,22.064-10.588,30.857-19.275,8.941-8.838,14.743-19.25,19.082-30.375l.481.15a48.432,48.432,0,0,1-50.317,49.974Z" transform="translate(-13.196 -13.326)" fill="#ca0733"/>
    </g>
    <path id="Path_85" data-name="Path 85" d="M1.5-34.5v5.95h14L1.5-4.6V0H24.8V-5.9H10.4l13.9-24v-4.6ZM33.25,0l2.1-6.55H46.9L49,0h7.45l-12-34.5h-6.7L25.75,0ZM41.1-24.6,45-12.45H37.2ZM38.15-37.1h6.2l5.15-6.45H42.15ZM57.8-34.5v5.95h14L57.8-4.6V0H81.1V-5.9H66.7l13.9-24v-4.6Zm47.15,0v21.65L91.45-34.5h-5.8V0H92.3V-21.35L105.75,0h5.85V-34.5ZM122.35,0l2.1-6.55H136L138.1,0h7.45l-12-34.5h-6.7L114.85,0Zm7.85-24.6,3.9,12.15h-7.8Zm25.15-9.9H148.8V0h6.65V-21.25l7.4,15.05h4.25l7.5-15.2V0h6.7V-34.5h-6.65l-9.6,18.8ZM15.75,42.85c8,0,12.9-4,12.9-11.3,0-7.4-4.95-11.05-12.9-11.05H3.4V55h7V42.85Zm-5.35-5.9V26.45h4.35c4.85,0,6.9,1.8,6.9,5.1,0,3.7-2.05,5.4-6.9,5.4ZM59.4,55,52.25,40.3c3.75-1.55,5.9-4.6,5.9-9.25,0-7-4.95-10.55-12.9-10.55H32.9V55h7V41.45h5.6L51.7,55ZM39.9,35.55v-9.1h4.7c4.15,0,6.55,1,6.55,4.6s-2.4,4.5-6.55,4.5Zm7.35-17.4,6.9-7.1H47.5L44.6,14.1l-2.85-3.05H35.1l6.9,7.1Zm16.5,2.35V55h21.5V49.1H70.75v-9h13V34.2h-13V26.45h14.5V20.5ZM102.35,55c7.8,0,13.25-4.05,13.25-15V35.5c0-11-5.45-15-13.25-15H90.1V55Zm0-5.9H97.1V26.45h5.25c4.65,0,6.25,3.1,6.25,9.05V40C108.6,45.95,107,49.1,102.35,49.1Zm38.3-28.6V42.15L127.15,20.5h-5.8V55H128V33.65L141.45,55h5.85V20.5ZM158.05,55l2.1-6.55H171.7L173.8,55h7.45l-12-34.5h-6.7l-12,34.5Zm7.85-24.6,3.9,12.15H162Zm-2.95-12.5h6.2l5.15-6.45h-7.35Zm44.75,7.8c-2.45-3.8-6.6-5.65-12.1-5.65-8.2,0-11.8,4.25-11.8,9.7,0,5.7,3.4,8.95,10.2,10.75,5.6,1.45,7.05,2.8,7.05,5.2,0,2.1-1.35,3.85-5.35,3.85a8.618,8.618,0,0,1-7.5-3.45l-5.35,3.7c3.05,4,7.25,5.65,13.3,5.65,8.1,0,11.9-4.4,11.9-10.05,0-6.1-3.25-8.8-10.45-10.6-4.6-1.15-6.8-2.35-6.8-5.05,0-2.35,1.7-3.8,4.85-3.8,3.5,0,5.3,1.15,6.8,3.5Zm-9.6-7.55,6.9-7.1h-6.65l-2.9,3.05-2.85-3.05h-6.65l6.9,7.1Zm15.15,2.35V55h21.5V49.1h-14.5v-9h13V34.2h-13V26.45h14.5V20.5ZM267.85,55l-12.6-20.55L265.8,20.5h-8.3L246.6,35.4V20.5h-7V55h7V45.85l4.1-5.4L259.5,55Z" transform="matrix(0.998, -0.07, 0.07, 0.998, 192.49, 106.9)" fill="#722a2d"/>
    <path id="Path_86" data-name="Path 86" d="M13.926,0,8.382-9.042l4.642-6.138H9.372l-4.8,6.556V-15.18H1.5V0h3.08V-4.026L6.38-6.4,10.252,0Zm13.2-10.428a3.49,3.49,0,0,0-2.354-.77c-2.618,0-4.356,1.716-4.356,4.928v1.5C20.416-1.848,21.89.2,24.772.2a3.294,3.294,0,0,0,2.354-.836V0H29.92V-15.18H27.126Zm-1.958,8.25c-1.518,0-1.958-1.188-1.958-2.772V-6.094c0-1.76.572-2.728,1.958-2.728,1.32,0,1.958.88,1.958,2.486V-4.95C27.126-3.366,26.752-2.178,25.168-2.178ZM32.516,0h2.816V-11H32.516Zm-.11-12.452h3.036V-15.18H32.406ZM46-9.372c-.858-1.408-2.354-1.826-4.158-1.826-2.75,0-4.246,1.3-4.246,3.388,0,2.222,1.672,3.19,3.96,3.564,1.386.22,1.87.44,1.87,1.122,0,.572-.594.9-1.562.9a2.49,2.49,0,0,1-2.354-.946l-2.156,1.54C38.3-.352,39.666.2,41.91.2c2.838,0,4.312-1.3,4.312-3.41,0-2.178-1.364-3.212-4.07-3.63-1.166-.176-1.76-.418-1.76-1.078,0-.638.66-.858,1.386-.858a2.382,2.382,0,0,1,2.156.88ZM57.64-6.27c0-3.146-1.716-4.928-4.268-4.928a3.085,3.085,0,0,0-2.442.924V-11H48.114V4.18H50.93V-.44A3.708,3.708,0,0,0,53.35.2c2.838,0,4.29-2.112,4.29-4.972ZM52.888-2.178c-1.584,0-1.958-1.188-1.958-2.772V-6.336c0-1.606.616-2.486,1.958-2.486,1.386,0,1.936.968,1.936,2.728V-4.95C54.824-3.366,54.406-2.178,52.888-2.178Zm15.708-4c0-3.3-1.694-5.016-4.752-5.016-3.014,0-4.752,1.716-4.752,5.016v1.32c0,3.08,1.562,5.06,4.752,5.06C67.166.2,68.6-1.848,68.6-4.862Zm-4.752,4c-1.562,0-1.958-1.188-1.958-2.772V-6.094c0-1.76.572-2.728,1.958-2.728S65.8-7.854,65.8-6.094V-4.95C65.8-3.366,65.384-2.178,63.844-2.178Zm6.138.22V0h8.624V-2.376H73.678l4.774-6.666V-11h-8.4v2.376h4.774ZM80.652,0h2.816V-11H80.652Zm-.11-12.452h3.036V-15.18H80.542ZM92.466-3.124a1.934,1.934,0,0,1-1.826.946c-1.782,0-2.2-1.188-2.2-2.772V-6.094c0-1.76.616-2.728,2.2-2.728a2.076,2.076,0,0,1,1.8.924l2.112-1.474a4.332,4.332,0,0,0-3.85-1.826c-3.278,0-5.06,1.716-5.06,4.928v1.5C85.646-1.782,87.406.2,90.552.2c1.98,0,3.234-.572,4-1.87ZM96.184,0H99V-11H96.184Zm-.11-12.452H99.11V-15.18H96.074Zm20.108,6.27c0-3.3-1.694-5.016-4.752-5.016-3.014,0-4.752,1.716-4.752,5.016v1.32c0,3.08,1.562,5.06,4.752,5.06,3.322,0,4.752-2.046,4.752-5.06Zm-4.752,4c-1.562,0-1.958-1.188-1.958-2.772V-6.094c0-1.76.572-2.728,1.958-2.728s1.958.968,1.958,2.728V-4.95C113.388-3.366,112.97-2.178,111.43-2.178Zm12.936-8.25a3.49,3.49,0,0,0-2.354-.77c-2.618,0-4.356,1.716-4.356,4.928v1.5c0,2.926,1.474,4.972,4.356,4.972a3.294,3.294,0,0,0,2.354-.836V0h2.794V-15.18h-2.794Zm-1.958,8.25c-1.518,0-1.958-1.188-1.958-2.772V-6.094c0-1.76.572-2.728,1.958-2.728,1.32,0,1.958.88,1.958,2.486V-4.95C124.366-3.366,123.992-2.178,122.408-2.178Zm15.664-4.356h1.122c1.562,0,2.332.792,2.332,2.134a1.9,1.9,0,0,1-1.98,2A2.008,2.008,0,0,1,137.3-4.07H134.6C134.706-1.606,136.532.2,139.744.2c3.124,0,4.84-1.98,4.84-4.444a3.883,3.883,0,0,0-2.288-3.63,3.714,3.714,0,0,0,2.068-3.322c0-2.266-2.024-4.18-4.8-4.18a4.468,4.468,0,0,0-4.774,4.18h2.728a1.806,1.806,0,0,1,1.892-1.628,1.759,1.759,0,0,1,1.892,1.76,1.865,1.865,0,0,1-2.112,1.936h-1.122Zm18.656-4.026c0-3.542-2.376-4.818-5.1-4.818s-5.1,1.276-5.1,4.84v5.9c0,3.41,2.376,4.84,5.1,4.84s5.1-1.43,5.1-4.84Zm-3.08.286v5.368c0,1.628-.66,2.508-2.024,2.508-1.386,0-2.046-.88-2.046-2.508v-5.368c0-1.628.66-2.508,2.046-2.508C152.988-12.782,153.648-11.9,153.648-10.274Zm8.668,6.842h-3.432V0h3.432Zm15.4-11.748h-3.3L171.358-9a10.571,10.571,0,0,0-1.386,4.334C169.972-1.3,172.26.2,175.1.2c2.816,0,5.082-1.518,5.082-4.884a4.264,4.264,0,0,0-4.158-4.532,3.271,3.271,0,0,0-1.474.286ZM173.052-4.554A1.92,1.92,0,0,1,175.1-6.688a1.909,1.909,0,0,1,2,2.134,1.916,1.916,0,0,1-2,2.156A1.927,1.927,0,0,1,173.052-4.554Zm12.716,1.122h-3.432V0h3.432Z" transform="matrix(0.998, -0.07, 0.07, 0.998, 198.908, 198.675)" fill="#ad102f"/>
  </g>
</svg>
